<svg width="14" height="17" viewBox="0 0 14 17" fill="none" xmlns="http://www.w3.org/2000/svg">
<path d="M13.0728 5.6825C12.5519 6.00141 12.1205 6.44725 11.8188 6.97831C11.5172 7.50938 11.3552 8.10829 11.348 8.719C11.3501 9.40635 11.5537 10.078 11.9337 10.6508C12.3137 11.2235 12.8534 11.6722 13.4859 11.9413C13.2365 12.7459 12.8675 13.5084 12.3911 14.2031C11.7095 15.1843 10.9968 16.1654 9.91242 16.1654C8.82802 16.1654 8.54912 15.5354 7.29942 15.5354C6.08072 15.5354 5.64692 16.1861 4.65542 16.1861C3.66392 16.1861 2.97202 15.2772 2.17672 14.1618C1.12618 12.5992 0.548826 10.7667 0.513916 8.8842C0.513916 5.7858 2.52792 4.1437 4.51082 4.1437C5.56432 4.1437 6.44222 4.8356 7.10322 4.8356C7.73322 4.8356 8.71442 4.1023 9.91242 4.1023C10.5284 4.08641 11.1388 4.22222 11.6899 4.49778C12.241 4.77334 12.716 5.18019 13.0728 5.6825ZM9.34442 2.7907C9.87252 2.16946 10.1715 1.38583 10.1913 0.570702C10.1922 0.463244 10.1818 0.35599 10.1603 0.250702C9.25317 0.339316 8.41432 0.771676 7.81582 1.4591C7.28262 2.05559 6.97242 2.81829 6.93792 3.6176C6.93832 3.71481 6.9487 3.81172 6.96892 3.9068C7.04043 3.92032 7.11304 3.92725 7.18582 3.9275C7.60389 3.89423 8.01083 3.77631 8.38191 3.58088C8.75299 3.38546 9.08046 3.11662 9.34442 2.7907Z" fill="black" fill-opacity="0.8"/>
</svg>
