<svg width="5" height="8" viewBox="0 0 5 8" fill="none" xmlns="http://www.w3.org/2000/svg">
<path d="M4.16522 4.0193C4.16522 4.15649 4.11377 4.27654 4.01087 4.37943L1.0848 7.29908C0.994763 7.38911 0.883293 7.43413 0.750387 7.43413C0.617481 7.43413 0.503868 7.38804 0.409547 7.29586C0.315227 7.20369 0.268066 7.09114 0.268066 6.95824C0.268066 6.82533 0.31737 6.70958 0.415978 6.61097L3.01408 4.0193L0.415978 1.42763C0.31737 1.32902 0.268066 1.21327 0.268066 1.08036C0.268066 0.947453 0.315227 0.834912 0.409547 0.742735C0.503868 0.650558 0.617481 0.60447 0.750387 0.60447C0.883293 0.60447 0.994763 0.649487 1.0848 0.73952L4.01087 3.65917C4.11377 3.76206 4.16522 3.88211 4.16522 4.0193Z" fill="#0066CC"/>
</svg>
